<svg xmlns="http://www.w3.org/2000/svg" viewBox="0 0 96.86 39.13"><defs><style>.cls-1{fill:#ed1e79;}</style></defs><title>Asset 1</title><g id="Layer_2" data-name="Layer 2"><g id="Layer_1-2" data-name="Layer 1"><path class="cls-1" d="M12,16.18A58.07,58.07,0,0,1,67,1.89,97.58,97.58,0,0,1,81.06,6.63a68,68,0,0,1,6.69,3.24,30.5,30.5,0,0,1,6.1,4.35,11.66,11.66,0,0,1,2.31,3.06,6,6,0,0,1,.59,3.88,7.33,7.33,0,0,1-1.86,3.42A15.89,15.89,0,0,1,92,27C87.77,29.8,83,31.47,78.37,33S68.94,36,64.08,37a96.76,96.76,0,0,1-14.71,2A88.92,88.92,0,0,1,20,35.74c-4.72-1.39-9.54-2.65-14-4.94a16.27,16.27,0,0,1-3.12-2.1,8.49,8.49,0,0,1-2.3-3,6.4,6.4,0,0,1-.49-1.85,5.7,5.7,0,0,1-.08-1l.06-1a12.4,12.4,0,0,1,.4-1.85,16.28,16.28,0,0,1,.73-1.74c2.33-4.48,6.23-7.76,10.18-10.67A82.7,82.7,0,0,1,24.2.34,82.58,82.58,0,0,0,11.51,7.87c-3.88,3-7.7,6.31-9.88,10.68a8.21,8.21,0,0,0-.54,6.91c1,2.18,3.07,3.66,5.2,4.78,4.36,2.2,9.17,3.42,13.9,4.76a90.08,90.08,0,0,0,29.13,3.08,95.82,95.82,0,0,0,14.56-2c4.78-1,9.5-2.5,14.18-4s9.33-3.19,13.39-5.83A15,15,0,0,0,94.19,24a6.41,6.41,0,0,0,1.65-3,5.09,5.09,0,0,0-.5-3.29,10.77,10.77,0,0,0-2.12-2.81,29.66,29.66,0,0,0-5.9-4.23,67.09,67.09,0,0,0-6.6-3.22A103.21,103.21,0,0,0,66.82,2.64a57.94,57.94,0,0,0-29.1-.3A58.78,58.78,0,0,0,12,16.18Z"/></g></g></svg>