<?xml version="1.0" encoding="utf-8"?>
<!-- Generator: Adobe Illustrator 21.1.0, SVG Export Plug-In . SVG Version: 6.00 Build 0)  -->
<svg version="1.1" id="Layer_1" xmlns="http://www.w3.org/2000/svg" xmlns:xlink="http://www.w3.org/1999/xlink" x="0px" y="0px"
	 viewBox="0 0 1200 824" style="enable-background:new 0 0 1200 824;" xml:space="preserve">
<style type="text/css">
	.st0{fill:#FFFFFF;stroke:#000000;stroke-miterlimit:10;}
	.st1{fill:none;stroke:#000000;stroke-miterlimit:10;}
</style>
<path class="st0" d="M200.1,246c-14.6,35-13.8,62.2-54.5,62.2c-20.3,0-6.5-7.8-38.2-35.8c-13.7-12-27.9-73.6-27.9-92.6
	c0-38,29.2-34.5,68.7-44.1c24-5.8,16.1,11.6,42.1,46C228.6,232.4,210.3,221.5,200.1,246z"/>
<path class="st1" d="M780.8,493.9c12.5-35.8-5.8-33.3,32.8-46c19.3-6.3,43.5-1.7,67.8,30.2c32.7,43,37.6,24.2,43.5,42.2
	c11.8,36.1,3.9,68.2-30.7,89.5c-21,13-58.2,31.6-61.8-9.1C826.8,537.6,768.1,530.5,780.8,493.9z"/>
<path class="st1" d="M312.8,454.5c0,41.5-44.4,75.1-99.3,75.1s-99.3-33.6-99.3-75.1s45.2-84.3,99.3-75.1
	C285.7,391.5,312.8,413,312.8,454.5z"/>
<path class="st1" d="M1113.6,324.8c5.5,37.2-72.2,133.1-94.6,109.8c-38-39.5-58.8-31.2-58.8-72.7s10.4-51.8,58.8-77.5
	C1110.8,235.5,1110.7,305.5,1113.6,324.8z"/>
<path class="st1" d="M882.7,160.3c37.6-17.6,62.2-15.5,110.1,58.1c29.9,46-30.8,94.1-68.4,111.7s-46.7-28.4-25.2-62.9
	C938,205.2,845.1,177.9,882.7,160.3z"/>
</svg>
